<svg width="25" height="24" viewBox="0 0 25 24" fill="none" xmlns="http://www.w3.org/2000/svg">
<path d="M12.2598 13.1194C12.8811 13.1194 13.3848 12.6157 13.3848 11.9944C13.3848 11.3731 12.8811 10.8694 12.2598 10.8694C11.6384 10.8694 11.1348 11.3731 11.1348 11.9944C11.1348 12.6157 11.6384 13.1194 12.2598 13.1194Z" fill="#434345"/>
<path d="M18.2598 13.1194C18.8811 13.1194 19.3848 12.6157 19.3848 11.9944C19.3848 11.3731 18.8811 10.8694 18.2598 10.8694C17.6384 10.8694 17.1348 11.3731 17.1348 11.9944C17.1348 12.6157 17.6384 13.1194 18.2598 13.1194Z" fill="#434345"/>
<path d="M6.25977 13.1194C6.88109 13.1194 7.38477 12.6157 7.38477 11.9944C7.38477 11.3731 6.88109 10.8694 6.25977 10.8694C5.63845 10.8694 5.13477 11.3731 5.13477 11.9944C5.13477 12.6157 5.63845 13.1194 6.25977 13.1194Z" fill="#434345"/>
</svg>
